<svg id="ARTWORK" xmlns="http://www.w3.org/2000/svg" viewBox="0 0 708.66 120.01"><defs><style>.cls-1{fill:#22192a;}</style></defs><title>FindmoreConsutling</title><polygon class="cls-1" points="405.54 107.57 414.45 116.45 449.43 81.2 440.51 72.33 405.54 107.57"/><polygon class="cls-1" points="0 81.49 12.41 81.49 12.41 48.2 56.24 48.2 56.24 37.04 12.41 37.04 12.41 17.81 75.47 17.81 75.47 6.64 0 6.64 0 81.49"/><rect class="cls-1" x="87.46" y="6.64" width="12.41" height="74.85"/><polygon class="cls-1" points="189.06 68.06 131.9 6.64 116.49 6.64 116.49 81.49 128.9 81.49 128.9 20.11 186.04 81.49 201.47 81.49 201.47 6.64 189.06 6.64 189.06 68.06"/><path class="cls-1" d="M310.58,27.9q-11.41-10.39-31-10.4H232.27V92.36H282q16.63,0,27.92-9.94A34,34,0,0,0,322,55.76Q322,38.28,310.58,27.9ZM301.38,74q-7.19,7.2-18.35,7.21H244.68V28.67h36q12.53,0,20.21,7.37t7.7,19.41Q308.56,66.76,301.38,74Z" transform="translate(-14.17 -10.86)"/><polygon class="cls-1" points="410.29 20.29 410.29 81.49 422.69 81.49 422.69 6.64 407.24 6.64 371.2 51.88 335.33 6.64 319.83 6.64 319.83 81.49 332.23 81.49 332.23 20.29 332.54 20.29 371.11 69.09 409.98 20.29 410.29 20.29"/><path class="cls-1" d="M626.79,56.37q5.48-5.77,5.48-15.29,0-10.86-6.72-17.22t-18.5-6.36H548V92.36h12.4V63.82h37.79l20.25,28.54H632.9L612.84,63.2Q621.72,61.74,626.79,56.37Zm-66.37-3.71v-24h43.63q15.51,0,15.51,12.41,0,11.58-14.37,11.58Z" transform="translate(-14.17 -10.86)"/><polygon class="cls-1" points="642.71 70.33 642.71 48.2 686.54 48.2 686.54 37.04 642.71 37.04 642.71 17.81 705.77 17.81 705.77 6.64 630.29 6.64 630.29 81.49 708.66 81.49 708.66 70.33 642.71 70.33"/><path class="cls-1" d="M492.44,10.86A43.58,43.58,0,1,0,536,54.44,43.64,43.64,0,0,0,492.44,10.86Zm0,74.59a31,31,0,1,1,31-31A31,31,0,0,1,492.44,85.45Z" transform="translate(-14.17 -10.86)"/><polygon class="cls-1" points="481.61 28.16 474.93 28.16 474.93 40.23 462.86 40.23 462.86 46.92 474.93 46.92 474.93 58.99 481.61 58.99 481.61 46.92 493.68 46.92 493.68 40.23 481.61 40.23 481.61 28.16"/><path class="cls-1" d="M482.79,113.21a9.9,9.9,0,0,1,6.79-2.34,10.7,10.7,0,0,1,8.55,3.55l3-1.18c-2.68-3.81-6.54-5.7-11.57-5.7a13.34,13.34,0,0,0-8.8,2.94,11.4,11.4,0,0,0,0,17.42,13.44,13.44,0,0,0,8.85,2.91,15.79,15.79,0,0,0,6.53-1.23,13,13,0,0,0,4.9-4l-2.85-1.73a10.4,10.4,0,0,1-8.39,3.61,10.2,10.2,0,0,1-7-2.29,8.19,8.19,0,0,1,0-12Z" transform="translate(-14.17 -10.86)"/><path class="cls-1" d="M526,110.5a13.28,13.28,0,0,0-8.8-3,13.47,13.47,0,0,0-8.82,3,11.32,11.32,0,0,0-.06,17.4,14.87,14.87,0,0,0,17.71,0,11.37,11.37,0,0,0,0-17.43Zm-2,14.69a9.84,9.84,0,0,1-6.84,2.31,10,10,0,0,1-6.88-2.29,8.2,8.2,0,0,1,.05-12,11,11,0,0,1,13.25-.28,8.13,8.13,0,0,1,.42,12.25Z" transform="translate(-14.17 -10.86)"/><polygon class="cls-1" points="539.89 115.4 524.54 97.37 520.41 97.37 520.41 119.34 523.74 119.34 523.74 101.33 539.08 119.34 543.22 119.34 543.22 97.37 539.89 97.37 539.89 115.4"/><path class="cls-1" d="M577.6,117.15c-.89-.12-2.72-.28-5.5-.48A15.3,15.3,0,0,1,568,116a2.25,2.25,0,0,1-1.76-2.12,2.4,2.4,0,0,1,1.64-2.19,11.16,11.16,0,0,1,4.72-.78,18.45,18.45,0,0,1,9.1,2.48l2-2.46a17.77,17.77,0,0,0-10.88-3.24c-3.22,0-5.71.59-7.48,1.79a5.59,5.59,0,0,0-2.65,4.88,4.47,4.47,0,0,0,2.34,4.28c1.32.73,3.65,1.21,7,1.46a50.93,50.93,0,0,1,6.88.75c1.63.47,2.44,1.4,2.44,2.8a3.14,3.14,0,0,1-1.86,2.82,11.5,11.5,0,0,1-5.46,1.06,17.87,17.87,0,0,1-10.16-3.16L562.05,127c2.86,2.47,6.84,3.69,12,3.69,3.53,0,6.24-.63,8.13-1.91a6.13,6.13,0,0,0,2.83-5.4,5.12,5.12,0,0,0-1.81-4.21A11.33,11.33,0,0,0,577.6,117.15Z" transform="translate(-14.17 -10.86)"/><path class="cls-1" d="M608.93,122.22a4.48,4.48,0,0,1-2,4,13.89,13.89,0,0,1-12,0,4.46,4.46,0,0,1-2.07-4v-14H589.5V123.1a6.54,6.54,0,0,0,3.06,5.56,14.29,14.29,0,0,0,8.34,2.21,14,14,0,0,0,8.3-2.21,6.49,6.49,0,0,0,3.06-5.56V108.23h-3.33Z" transform="translate(-14.17 -10.86)"/><polygon class="cls-1" points="607.13 97.37 603.79 97.37 603.79 119.34 622.64 119.34 622.64 116.07 607.13 116.07 607.13 97.37"/><polygon class="cls-1" points="619.22 100.65 628.82 100.65 628.82 119.34 632.15 119.34 632.15 100.65 641.75 100.65 641.75 97.37 619.22 97.37 619.22 100.65"/><rect class="cls-1" x="646.27" y="97.37" width="3.33" height="21.97"/><polygon class="cls-1" points="674.8 115.4 659.45 97.37 655.32 97.37 655.32 119.34 658.65 119.34 658.65 101.33 673.98 119.34 678.13 119.34 678.13 97.37 674.8 97.37 674.8 115.4"/><path class="cls-1" d="M709,118.56v3.27h9.36c-1.33,3.78-4.23,5.67-8.66,5.67a9.86,9.86,0,0,1-6.83-2.31,8.13,8.13,0,0,1,.42-12.25,9.87,9.87,0,0,1,6.41-2.07,10.1,10.1,0,0,1,8,3.68l3.11-1.71a13.33,13.33,0,0,0-10.88-5.3,13.79,13.79,0,0,0-9.08,3,11.37,11.37,0,0,0-.06,17.4,13.45,13.45,0,0,0,8.86,2.94,13,13,0,0,0,9.31-3.3,11.34,11.34,0,0,0,3.51-8.66v-.32Z" transform="translate(-14.17 -10.86)"/></svg>